<svg data-v-423bf9ae="" xmlns="http://www.w3.org/2000/svg" viewBox="0 0 423 90" class="iconLeft"><!----><!----><!----><g data-v-423bf9ae="" id="2aa3d4eb-53ec-4162-85ea-27dfa2dc426a" fill="#ffffff" transform="matrix(6.14754083944053,0,0,6.14754083944053,104.74253612833584,-3.749999505574607)"><path d="M4.02 3.48L4.02 3.48L4.02 3.48Q3.68 3.49 3.46 3.64L3.46 3.64L3.46 3.64Q3.25 3.80 2.00 5.41L2.00 5.41L2.28 5.63L2.28 5.63Q2.70 5.11 2.97 4.95L2.97 4.95L2.97 4.95Q3.24 4.79 3.36 5.36L3.36 5.36L2.32 8.38L1.69 8.38L0.29 9.75L0.42 9.97L0.42 9.97Q1.13 9.82 1.66 9.86L1.66 9.86L1.66 9.86Q1.32 10.79 1.02 11.34L1.02 11.34L1.02 11.34Q0.72 11.88 0.15 12.38L0.15 12.38L0.25 12.69L2.47 12.68L3.45 11.39L3.35 11.27L1.66 11.26L1.66 11.26Q2.15 11.01 2.66 9.86L2.66 9.86L4.01 9.85L4.70 9.12L4.70 9.12Q5.59 11.66 6.00 12.16L6.00 12.16L6.00 12.16Q6.41 12.67 6.86 12.78L6.86 12.78L7.92 11.53L7.92 11.53Q7.12 11.35 5.96 7.69L5.96 7.69L5.96 7.69Q4.81 4.03 4.59 3.75L4.59 3.75L4.59 3.75Q4.37 3.48 4.02 3.48ZM3.81 6.47L4.48 8.44L3.14 8.43L3.81 6.47ZM12.39 12.76L14.06 11.54L13.90 11.31L13.90 11.31Q13.45 11.40 13.45 10.68L13.45 10.68L13.45 10.68Q13.52 7.72 13.43 7.27L13.43 7.27L13.43 7.27Q13.34 6.82 12.77 6.47L12.77 6.47L11.32 7.72L11.39 7.85L11.39 7.85Q11.79 7.65 11.91 8.33L11.91 8.33L11.91 8.33Q12.02 9.02 11.95 10.91L11.95 10.91L11.95 10.91Q11.07 11.70 10.47 11.47L10.47 11.47L10.47 11.47Q9.86 11.25 9.87 9.81L9.87 9.81L9.87 9.81Q9.91 7.76 9.86 7.27L9.86 7.27L9.86 7.27Q9.81 6.78 9.27 6.42L9.27 6.42L7.85 7.69L7.98 7.85L7.98 7.85Q8.24 7.66 8.33 8.36L8.33 8.36L8.33 8.36Q8.42 9.07 8.36 10.51L8.36 10.51L8.36 10.51Q8.30 11.39 8.52 11.88L8.52 11.88L8.52 11.88Q8.74 12.38 9.36 12.63L9.36 12.63L9.36 12.63Q9.98 12.87 10.51 12.61L10.51 12.61L10.51 12.61Q11.05 12.35 11.39 12.07L11.39 12.07L11.39 12.07Q11.74 11.78 11.92 11.57L11.92 11.57L11.92 11.57Q11.86 12.41 12.39 12.76L12.39 12.76ZM16.50 3.70L15.26 4.68L15.26 4.68Q15.66 4.64 15.48 6.90L15.48 6.90L15.04 6.91L14.05 8.26L14.27 8.45L14.27 8.45Q14.59 8.09 15.44 8.13L15.44 8.13L15.44 8.13Q15.32 11.08 15.45 11.67L15.45 11.67L15.45 11.67Q15.57 12.25 16.25 12.72L16.25 12.72L16.25 12.72Q17.19 12.24 18.50 11.16L18.50 11.16L18.38 10.63L18.38 10.63Q16.91 11.38 16.82 10.75L16.82 10.75L16.82 10.75Q16.73 10.13 16.80 8.13L16.80 8.13L17.66 8.13L18.55 7.02L18.50 6.88L16.83 6.86L16.91 4.57L16.91 4.57Q16.83 3.98 16.50 3.70L16.50 3.70ZM21.31 6.49L21.31 6.49Q20.17 7.24 19.69 7.80L19.69 7.80L19.69 7.80Q19.22 8.35 19.02 8.92L19.02 8.92L19.02 8.92Q18.83 9.48 18.96 10.33L18.96 10.33L18.96 10.33Q19.09 11.18 19.95 11.96L19.95 11.96L19.95 11.96Q20.82 12.75 21.34 12.75L21.34 12.75L21.34 12.75Q21.86 12.76 22.98 11.74L22.98 11.74L22.98 11.74Q23.41 11.35 23.73 10.91L23.73 10.91L23.73 10.91Q24.06 10.47 24.21 9.67L24.21 9.67L24.21 9.67Q24.36 8.87 23.95 7.90L23.95 7.90L23.95 7.90Q22.91 6.30 21.31 6.49L21.31 6.49ZM21.09 7.70L21.09 7.70L21.09 7.70Q21.96 7.83 22.46 8.81L22.46 8.81L22.46 8.81Q22.97 9.79 22.80 10.78L22.80 10.78L22.80 10.78Q22.63 11.76 21.75 11.29L21.75 11.29L21.75 11.29Q20.87 10.81 20.43 10.00L20.43 10.00L20.43 10.00Q19.98 9.19 20.10 8.37L20.10 8.37L20.10 8.37Q20.22 7.56 21.09 7.70ZM26.32 3.63L24.58 5.39L24.75 5.71L24.75 5.71Q25.27 5.27 25.21 6.62L25.21 6.62L25.21 6.62Q25.14 10.88 25.23 11.54L25.23 11.54L25.23 11.54Q25.33 12.20 25.92 12.69L25.92 12.69L27.39 11.22L27.39 10.99L27.39 10.99Q26.84 11.11 26.77 10.07L26.77 10.07L26.77 10.07Q26.69 9.02 26.78 6.30L26.78 6.30L26.78 6.30Q27.69 5.15 28.31 5.48L28.31 5.48L28.31 5.48Q28.94 5.81 28.94 7.88L28.94 7.88L28.94 7.88Q28.90 10.83 28.95 11.54L28.95 11.54L28.95 11.54Q29.00 12.24 29.56 12.76L29.56 12.76L30.98 11.25L30.95 11.02L30.95 11.02Q30.39 11.18 30.52 6.10L30.52 6.10L30.52 6.10Q31.38 5.15 32.01 5.48L32.01 5.48L32.01 5.48Q32.63 5.81 32.63 7.88L32.63 7.88L32.63 7.88Q32.59 10.83 32.64 11.54L32.64 11.54L32.64 11.54Q32.69 12.24 33.25 12.76L33.25 12.76L34.71 11.20L34.67 10.98L34.67 10.98Q34.30 11.14 34.19 10.09L34.19 10.09L34.19 10.09Q34.08 9.04 34.15 6.97L34.15 6.97L34.15 6.97Q34.20 5.71 34.00 4.94L34.00 4.94L34.00 4.94Q33.80 4.18 33.16 3.82L33.16 3.82L33.16 3.82Q32.51 3.47 31.96 3.85L31.96 3.85L31.96 3.85Q31.40 4.22 31.05 4.63L31.05 4.63L31.05 4.63Q30.69 5.04 30.45 5.39L30.45 5.39L30.45 5.39Q30.11 4.18 29.47 3.82L29.47 3.82L29.47 3.82Q28.82 3.47 28.27 3.85L28.27 3.85L28.27 3.85Q27.71 4.22 27.35 4.63L27.35 4.63L27.35 4.63Q27.00 5.04 26.80 5.35L26.80 5.35L26.80 5.35Q26.87 4.14 26.32 3.63L26.32 3.63ZM38.29 6.60L38.29 6.60L38.29 6.60Q37.23 6.43 36.30 7.26L36.30 7.26L36.30 7.26Q35.37 8.09 35.11 9.20L35.11 9.20L35.11 9.20Q34.85 10.31 35.27 11.26L35.27 11.26L35.27 11.26Q35.69 12.22 36.83 12.62L36.83 12.62L36.83 12.62Q37.76 12.93 38.77 12.18L38.77 12.18L38.77 12.18Q39.77 11.43 40.09 10.77L40.09 10.77L39.88 10.61L39.88 10.61Q38.50 11.56 37.68 11.24L37.68 11.24L37.68 11.24Q36.87 10.92 36.72 10.51L36.72 10.51L38.21 9.54L38.21 9.54Q39.65 8.65 39.50 7.70L39.50 7.70L39.50 7.70Q39.36 6.76 38.29 6.60ZM36.21 8.64L36.21 8.64L36.21 8.64Q36.19 8.14 36.56 7.78L36.56 7.78L36.56 7.78Q36.93 7.41 37.54 7.78L37.54 7.78L37.54 7.78Q38.15 8.15 38.06 8.76L38.06 8.76L38.06 8.76Q37.96 9.37 36.52 10.14L36.52 10.14L36.52 10.14Q36.36 9.80 36.29 9.47L36.29 9.47L36.29 9.47Q36.22 9.14 36.21 8.64ZM43.22 6.62L43.22 6.62L43.22 6.62Q42.83 6.77 42.50 6.99L42.50 6.99L42.50 6.99Q42.16 7.21 41.81 7.49L41.81 7.49L41.81 7.49Q39.35 9.38 40.95 11.66L40.95 11.66L40.95 11.66Q41.41 12.21 41.87 12.45L41.87 12.45L41.87 12.45Q42.33 12.69 42.98 12.70L42.98 12.70L42.98 12.70Q43.63 12.70 44.31 12.07L44.31 12.07L44.31 12.07Q44.99 11.44 45.43 10.79L45.43 10.79L45.21 10.60L45.21 10.60Q45.04 10.82 44.77 11.07L44.77 11.07L44.77 11.07Q44.50 11.32 44.06 11.32L44.06 11.32L44.06 11.32Q43.63 11.33 43.12 10.99L43.12 10.99L43.12 10.99Q41.59 10.14 41.92 8.37L41.92 8.37L41.92 8.37Q42.10 7.62 42.96 7.85L42.96 7.85L42.96 7.85Q43.69 8.12 43.97 8.98L43.97 8.98L45.31 7.93L45.31 7.93Q45.29 7.33 44.86 7.00L44.86 7.00L44.86 7.00Q44.43 6.66 44.02 6.56L44.02 6.56L44.02 6.56Q43.60 6.47 43.22 6.62ZM47.05 3.05L45.88 3.99L45.88 3.99Q46.05 4.34 46.07 4.93L46.07 4.93L46.07 4.93Q46.05 11.40 46.17 11.88L46.17 11.88L46.17 11.88Q46.29 12.37 46.66 12.81L46.66 12.81L48.10 11.46L48.10 11.29L48.10 11.29Q47.65 11.40 47.52 10.78L47.52 10.78L47.52 10.78Q47.40 10.17 47.48 8.27L47.48 8.27L47.48 8.27Q48.48 7.50 49.09 7.73L49.09 7.73L49.09 7.73Q49.69 7.96 49.68 9.39L49.68 9.39L49.68 9.39Q49.65 11.44 49.70 11.93L49.70 11.93L49.70 11.93Q49.75 12.42 50.29 12.78L50.29 12.78L51.67 11.53L51.67 11.35L51.67 11.35Q51.32 11.46 51.20 10.83L51.20 10.83L51.20 10.83Q51.08 10.20 51.15 8.76L51.15 8.76L51.15 8.76Q51.20 7.88 51.01 7.35L51.01 7.35L51.01 7.35Q50.82 6.82 50.20 6.58L50.20 6.58L50.20 6.58Q49.57 6.33 49.04 6.59L49.04 6.59L49.04 6.59Q48.51 6.85 48.16 7.14L48.16 7.14L48.16 7.14Q47.82 7.42 47.50 7.62L47.50 7.62L47.48 3.91L47.48 3.91Q47.39 3.32 47.05 3.05L47.05 3.05Z"></path></g><!----><g data-v-423bf9ae="" id="2d0b096b-1192-46b0-9e92-172418d743b5" transform="matrix(1.014777853899269,0,0,1.014777853899269,201.0818528121918,-215.14324880279958)" stroke="none" fill="#0EA7FF"><switch><g><path d="M-155.3 245.9c-8.2.2-16.5.6-24.7 1.3 0-.3.1-.7.2-1.1 1.4-5.8 3.5-11.2 6.6-16.3.2-.3.4-.5.6-.7.2-.2.5-.3.8-.4 1.4-.6 4.7-1.6 12.2-2.2.3-2.2.9-4.3 1.7-6.3-3.4.2-6.8.5-10.2 1-3.6.6-6.8 1.8-9 5-3.2 4.6-5.6 9.6-7.1 15-.3 1.2-.6 2.4-1.1 4-.4-.7-.8-1.2-1-1.7 0 0-2.5-4-6.1-4.1h-1.9c-1.7.1-2.8 1.2-2.9 2.9v3.6c0 1.8 1.2 3 3.1 3h7.7c.1.1.1.2.2.3-.2.1-.5.2-.7.4-4.6 4.4-7.1 9.8-7 16.2.1 3.8.4 7.7.8 11.5.3 2.9 1 5.8 2.3 8.5.6 1.2 1.3 2.1 2.6 2.3.6.1.7.5.7 1v4.8c0 2.2 1.3 3.5 3.5 3.5h5.7c2.4 0 3.7-1.3 3.7-3.7v-3.8c8.7.6 17.3 1 25.9 1h.3v-4.4-8.4h-.2-.1-13.6c-1.1 0-2-.3-2.5-1.3-.5-1.1-.1-2 .6-2.8 1.3-1.5 3-3.7 5-3.7H-148.5v-17.5c-2.7-1.7-5-4.1-6.8-6.9zm-22.9 24.8c-3.8 0-6.8-3.1-6.8-6.8 0-3.8 3.1-6.8 6.8-6.8 3.8 0 6.8 3.1 6.8 6.8s-3.1 6.8-6.8 6.8zm62.3-29.6c-1.9 3-4.5 5.3-7.7 6.9-.6.3-.9.7-.9 1.4v43.7c0 4.3-2.8 7.6-6.9 8.2-4.6.7-9-2.8-9.2-7.5v-1.1-43.3c0-.7-.2-1-.8-1.3-11.2-5.6-14.3-20.1-6.5-29.8 1.8-2.3 4.1-4 6.7-5.3.2-.1.3-.1.8-.3-.1.4-.2.7-.2 1v15.5c0 .7.2 1.1.7 1.5 2.3 1.8 4.6 3.6 6.8 5.4.4.3.7.4 1.1 0 2.3-1.9 4.7-3.7 7-5.6.4-.3.6-.7.6-1.2v-15.7c0-.3-.1-.5-.1-.8.1 0 .1-.1.2-.1.7.4 1.5.8 2.2 1.2 9.4 5.8 12.1 17.9 6.2 27.2z"></path></g></switch></g><!----></svg>